<svg xmlns="http://www.w3.org/2000/svg" viewBox="0 0 122 98">
    <style>
      /* Peak bars — ta-gold-hover fill, ta-gold rim */
      .cls-1{fill:#c9b896;stroke:#b6a082;stroke-width:0.35}
      /* Axes & frame — muted structural grey */
      .cls-2{fill:#5a5f68}
      /* Grid lines & bar stems — ta-navy-mid */
      .cls-3{fill:#343d4a}
      /* Primary bars — ta-navy-card with ta-grey-border edge */
      .cls-4{fill:#2a252c;stroke:#3d4450;stroke-width:0.3}
    </style>
  <path d="M120.75 78.61H4.1c-.12 0-.22-.1-.22-.22s.1-.22.22-.22h116.65c.12 0 .22.1.22.22s-.1.22-.22.22m0-14.66H4.1c-.12 0-.22-.1-.22-.22s.1-.22.22-.22h116.65q.2.02.22.22c.02.2-.1.22-.22.22m0-14.75L3.38 48.91a.2.2 0 0 1-.22-.22c0-.12.1-.22.22-.22l117.37.29q.2.02.22.22c0 .12-.1.22-.22.22m0-15.04H4.1c-.12 0-.22-.1-.22-.22s.1-.22.22-.22h116.65c.12 0 .22.1.22.22s-.1.22-.22.22m0-14.79H4.1c-.12 0-.22-.1-.22-.22s.1-.22.22-.22h116.65c.12 0 .22.1.22.22s-.1.22-.22.22m0-14.99H4.1c-.12 0-.22-.1-.22-.22s.1-.22.22-.22h116.65c.12 0 .22.1.22.22s-.1.22-.22.22" class="cls-3"/>
    <path d="M16.62 85.33a.55.55 0 0 1-.55-.55V55.21c0-.3.25-.55.55-.55s.55.25.55.55v29.57c0 .3-.25.55-.55.55" class="cls-3"/>
    <path d="M16.62 80.8a3.7 3.7 0 0 1-3.71-3.71V62.91a3.7 3.7 0 1 1 7.42 0v14.18a3.7 3.7 0 0 1-3.71 3.71" class="cls-4"/>
  
    <path d="M35.43 68.27a.55.55 0 0 1-.55-.55V32.36c0-.3.25-.55.55-.55s.55.25.55.55v35.36c0 .3-.25.55-.55.55" class="cls-3"/>
    <path d="M35.43 64.66a3.7 3.7 0 0 1-3.71-3.71V40.06a3.7 3.7 0 1 1 7.42 0v20.89a3.7 3.7 0 0 1-3.71 3.71" class="cls-4"/>
  
    <path d="M26.02 83.47a.55.55 0 0 1-.55-.55V43.03c0-.3.25-.55.55-.55s.55.25.55.55v39.89c0 .3-.25.55-.55.55" class="cls-3"/>
    <path d="M26.02 78.39a3.7 3.7 0 0 1-3.71-3.71V50.73a3.7 3.7 0 1 1 7.42 0v23.95a3.7 3.7 0 0 1-3.71 3.71" class="cls-1"/>
  
    <path d="M44.83 61.34a.55.55 0 0 1-.55-.55V20.9c0-.3.25-.55.55-.55s.55.25.55.55v39.89c0 .3-.25.55-.55.55" class="cls-3"/>
    <path d="M44.83 56.26a3.7 3.7 0 0 1-3.71-3.71V28.6a3.7 3.7 0 1 1 7.42 0v23.95a3.7 3.7 0 0 1-3.71 3.71" class="cls-1"/>
  
    <path d="M54.23 43.64a.55.55 0 0 1-.55-.55V14.87c0-.3.25-.55.55-.55s.55.25.55.55v28.21c0 .3-.25.55-.55.55Z" class="cls-3"/>
    <path d="M54.23 40.12a3.7 3.7 0 0 1-3.71-3.71V21.43a3.7 3.7 0 1 1 7.42 0v14.98a3.7 3.7 0 0 1-3.71 3.71" class="cls-4"/>
  
    <path d="M91.83 62.44a.55.55 0 0 1-.55-.55V33.68c0-.3.25-.55.55-.55s.55.25.55.55v28.21c0 .3-.25.55-.55.55" class="cls-3"/>
    <path d="M91.83 58.93a3.7 3.7 0 0 1-3.71-3.71V40.24a3.7 3.7 0 1 1 7.42 0v14.98a3.7 3.7 0 0 1-3.71 3.71" class="cls-4"/>
  
    <path d="M110.63 64.43a.55.55 0 0 1-.55-.55V35.67c0-.3.25-.55.55-.55s.55.25.55.55v28.21c0 .3-.25.55-.55.55" class="cls-3"/>
    <path d="M110.63 60.92a3.7 3.7 0 0 1-3.71-3.71V42.23a3.7 3.7 0 1 1 7.42 0v14.98a3.7 3.7 0 0 1-3.71 3.71" class="cls-4"/>
  
    <path d="M63.63 64.95a.55.55 0 0 1-.55-.55V22.6c0-.3.25-.55.55-.55s.55.25.55.55v41.8c0 .3-.25.55-.55.55" class="cls-3"/>
    <path d="M63.63 58.91a3.7 3.7 0 0 1-3.71-3.71V31.25a3.7 3.7 0 1 1 7.42 0V55.2a3.7 3.7 0 0 1-3.71 3.71" class="cls-1"/>
  
    <path d="M73.03 69.97a.55.55 0 0 1-.55-.55V29.53c0-.3.25-.55.55-.55s.55.25.55.55v39.89c0 .3-.25.55-.55.55" class="cls-3"/>
    <path d="M73.03 64.9a3.7 3.7 0 0 1-3.71-3.71V37.24a3.7 3.7 0 1 1 7.42 0v23.95a3.7 3.7 0 0 1-3.71 3.71" class="cls-4"/>
  
    <path d="M101.23 79.29a.55.55 0 0 1-.55-.55V38.85c0-.3.25-.55.55-.55s.55.25.55.55v39.89c0 .3-.25.55-.55.55" class="cls-3"/>
    <path d="M101.23 74.21a3.7 3.7 0 0 1-3.71-3.71V46.55a3.7 3.7 0 1 1 7.42 0V70.5a3.7 3.7 0 0 1-3.71 3.71" class="cls-4"/>
  
    <path d="M82.43 67.51a.55.55 0 0 1-.55-.55V27.07c0-.3.25-.55.55-.55s.55.25.55.55v39.89c0 .3-.25.55-.55.55" class="cls-3"/>
    <path d="M82.43 62.43a3.7 3.7 0 0 1-3.71-3.71V34.77a3.7 3.7 0 1 1 7.42 0v23.95a3.7 3.7 0 0 1-3.71 3.71" class="cls-1"/>
  
    <path d="M120.75 93.96H4.09a.44.44 0 0 1-.44-.44V.44c0-.24.2-.44.44-.44s.44.2.44.44v92.64h116.22c.24 0 .44.2.44.44s-.2.44-.44.44" class="cls-2"/>
    <path d="M4.09 4.6H.44C.2 4.6 0 4.4 0 4.16s.2-.44.44-.44h3.65c.24 0 .44.2.44.44s-.2.44-.44.44m0 14.89H.44c-.24 0-.44-.2-.44-.44s.2-.44.44-.44h3.65c.24 0 .44.2.44.44s-.2.44-.44.44m0 14.89H.44c-.24 0-.44-.2-.44-.44s.2-.44.44-.44h3.65c.24 0 .44.2.44.44s-.2.44-.44.44m0 14.9H.44c-.24 0-.44-.2-.44-.44s.2-.44.44-.44h3.65c.24 0 .44.2.44.44s-.2.44-.44.44m0 14.89H.44c-.24 0-.44-.2-.44-.44s.2-.44.44-.44h3.65c.24 0 .44.2.44.44s-.2.44-.44.44m0 14.89H.44c-.24 0-.44-.2-.44-.44s.2-.44.44-.44h3.65c.24 0 .44.2.44.44s-.2.44-.44.44m14.63 18.55a.44.44 0 0 1-.44-.44v-3.65c0-.24.2-.44.44-.44s.44.2.44.44v3.65c0 .24-.2.44-.44.44m14.89 0a.44.44 0 0 1-.44-.44v-3.65c0-.24.2-.44.44-.44s.44.2.44.44v3.65c0 .24-.2.44-.44.44m14.89 0a.44.44 0 0 1-.44-.44v-3.65c0-.24.2-.44.44-.44s.44.2.44.44v3.65c0 .24-.2.44-.44.44m14.9 0a.44.44 0 0 1-.44-.44v-3.65c0-.24.2-.44.44-.44s.44.2.44.44v3.65c0 .24-.2.44-.44.44m14.89 0a.44.44 0 0 1-.44-.44v-3.65c0-.24.2-.44.44-.44s.44.2.44.44v3.65c0 .24-.2.44-.44.44m14.89 0a.44.44 0 0 1-.44-.44v-3.65c0-.24.2-.44.44-.44s.44.2.44.44v3.65c0 .24-.2.44-.44.44m15.23 0a.44.44 0 0 1-.44-.44v-3.65c0-.24.2-.44.44-.44s.44.2.44.44v3.65c0 .24-.2.44-.44.44" class="cls-2"/>
  
</svg>